<svg width="70" height="70" viewBox="0 0 70 70" fill="none" xmlns="http://www.w3.org/2000/svg">
<path d="M69.7056 34.4603C69.4147 15.1299 53.7881 -0.292106 34.8159 0.00419918C15.8368 0.300505 0.695061 16.2163 0.985985 35.5397C1.27691 54.8701 16.9035 70.2921 35.8757 69.9958C54.8548 69.6995 70.0035 53.7907 69.7056 34.4603Z" fill="url(#paint0_linear_404_104)"/>
<path d="M34.855 63C19.9431 63 7.85469 50.6878 7.85469 35.5C7.85469 20.3122 19.9431 8 34.855 8C49.7669 8 61.8553 20.3122 61.8553 35.5C61.8553 50.6878 49.7669 63 34.855 63Z" fill="#B897FD"/>
<path d="M33.5349 22.8915L33.565 21L37.1524 21.0503L37.1223 22.9417C40.2237 23.5676 41.7819 25.7698 41.7218 29.2238L41.7068 30.0233L37.5582 29.9639L37.5783 28.9085C37.6083 27.0901 36.8217 26.3866 35.4288 26.3683C34.036 26.35 33.2243 27.0262 33.1942 28.8445C33.104 34.0803 41.6717 34.455 41.5514 41.7239C41.4913 45.1778 39.8229 47.3708 36.7015 47.9099L36.6714 49.7648L33.084 49.7146L33.1141 47.8597C29.9726 47.2338 28.4194 44.9951 28.4745 41.5411L28.5046 39.7958L32.6531 39.8552L32.618 41.8563C32.588 43.6747 33.4548 44.3417 34.8476 44.36C36.2455 44.3783 37.1323 43.7387 37.1624 41.9203C37.2526 36.6845 28.6849 36.3099 28.8052 29.041C28.8653 25.6281 30.4586 23.4671 33.5349 22.8915Z" fill="#3B3B3B"/>
<defs>
<linearGradient id="paint0_linear_404_104" x1="14.8461" y1="-5.26542e-07" x2="72.7575" y2="68.2318" gradientUnits="userSpaceOnUse">
<stop stop-color="#BA99FD"/>
<stop offset="1" stop-color="#CEC0FD"/>
</linearGradient>
</defs>
</svg>
