<svg width="71" height="70" viewBox="0 0 71 70" fill="none" xmlns="http://www.w3.org/2000/svg">
<rect x="11" y="8" width="59.1111" height="43.5556" rx="8" fill="url(#paint0_linear_404_113)"/>
<rect y="17" width="61.0714" height="45" rx="8" fill="url(#paint1_linear_404_113)"/>
<path d="M11.4673 25.9563C10.9353 25.3911 10.1825 25.0361 9.3449 25.0361C7.73406 25.0361 6.42822 26.342 6.42822 27.9528C6.42822 28.7903 6.78308 29.5432 7.34838 30.0752L13.6401 36.3669C14.1721 36.9321 14.925 37.2871 15.7625 37.2871C17.3733 37.2871 18.6792 35.9812 18.6792 34.3704C18.6792 33.5329 18.3242 32.78 17.759 32.248L11.4673 25.9563Z" fill="url(#paint2_linear_404_113)"/>
<path d="M8.91668 30.8695C10.5275 30.8695 11.8334 29.5637 11.8334 27.9528C11.8334 26.342 10.5275 25.0361 8.91668 25.0361C7.30584 25.0361 6 26.342 6 27.9528C6 29.5637 7.30584 30.8695 8.91668 30.8695Z" fill="#F8D57E"/>
<path d="M19.7175 25.9563C19.1856 25.3911 18.4327 25.0361 17.5951 25.0361C15.9843 25.0361 14.6785 26.342 14.6785 27.9528C14.6785 28.7903 15.0333 29.5432 15.5986 30.0752L21.8904 36.3669C22.4224 36.9321 23.1752 37.2871 24.0127 37.2871C25.6236 37.2871 26.9294 35.9812 26.9294 34.3704C26.9294 33.5329 26.5744 32.78 26.0092 32.248L19.7175 25.9563Z" fill="url(#paint3_linear_404_113)"/>
<path d="M17.5951 30.8695C19.206 30.8695 20.5118 29.5637 20.5118 27.9528C20.5118 26.342 19.206 25.0361 17.5951 25.0361C15.9843 25.0361 14.6785 26.342 14.6785 27.9528C14.6785 29.5637 15.9843 30.8695 17.5951 30.8695Z" fill="#F8D57E"/>
<path d="M27.9641 25.9563C27.4322 25.3911 26.6793 25.0361 25.8417 25.0361C24.2309 25.0361 22.925 26.342 22.925 27.9528C22.925 28.7903 23.28 29.5432 23.8452 30.0752L30.1369 36.3669C30.669 36.9321 31.4218 37.2871 32.2593 37.2871C33.8702 37.2871 35.176 35.9812 35.176 34.3704C35.176 33.5329 34.821 32.78 34.2558 32.248L27.9641 25.9563Z" fill="url(#paint4_linear_404_113)"/>
<path d="M25.8417 30.8695C27.4526 30.8695 28.7584 29.5637 28.7584 27.9528C28.7584 26.342 27.4526 25.0361 25.8417 25.0361C24.2309 25.0361 22.925 26.342 22.925 27.9528C22.925 29.5637 24.2309 30.8695 25.8417 30.8695Z" fill="#F8D57E"/>
<defs>
<linearGradient id="paint0_linear_404_113" x1="11" y1="8" x2="70.1111" y2="51.5556" gradientUnits="userSpaceOnUse">
<stop stop-color="#A7F4CE"/>
<stop offset="1" stop-color="#7DE5AE"/>
</linearGradient>
<linearGradient id="paint1_linear_404_113" x1="0" y1="17" x2="61.0714" y2="62" gradientUnits="userSpaceOnUse">
<stop stop-color="#3D81FF"/>
<stop offset="1" stop-color="#65E2FD"/>
</linearGradient>
<linearGradient id="paint2_linear_404_113" x1="15.8331" y1="34.4416" x2="3.21835" y2="21.8272" gradientUnits="userSpaceOnUse">
<stop stop-color="#00A2F3" stop-opacity="0"/>
<stop offset="1" stop-color="#0075CD"/>
</linearGradient>
<linearGradient id="paint3_linear_404_113" x1="24.0827" y1="34.4413" x2="11.4684" y2="21.8269" gradientUnits="userSpaceOnUse">
<stop stop-color="#00A2F3" stop-opacity="0"/>
<stop offset="1" stop-color="#0075CD"/>
</linearGradient>
<linearGradient id="paint4_linear_404_113" x1="32.3293" y1="34.4414" x2="19.715" y2="21.827" gradientUnits="userSpaceOnUse">
<stop stop-color="#00A2F3" stop-opacity="0"/>
<stop offset="1" stop-color="#0075CD"/>
</linearGradient>
</defs>
</svg>
