<svg width="78" height="19" viewBox="0 0 78 19" fill="none" xmlns="http://www.w3.org/2000/svg">
<path d="M24.048 1.248L19.368 18H15.408L12.264 6.072L8.976 18L5.04 18.024L0.528 1.248H4.128L7.08 14.256L10.488 1.248H14.232L17.448 14.184L20.424 1.248H24.048ZM25.3779 11.304C25.3779 9.96 25.6419 8.768 26.1699 7.728C26.7139 6.688 27.4419 5.888 28.3539 5.328C29.2819 4.768 30.3139 4.488 31.4499 4.488C32.4419 4.488 33.3059 4.688 34.0419 5.088C34.7939 5.488 35.3939 5.992 35.8419 6.6V4.704H39.2259V18H35.8419V16.056C35.4099 16.68 34.8099 17.2 34.0419 17.616C33.2899 18.016 32.4179 18.216 31.4259 18.216C30.3059 18.216 29.2819 17.928 28.3539 17.352C27.4419 16.776 26.7139 15.968 26.1699 14.928C25.6419 13.872 25.3779 12.664 25.3779 11.304ZM35.8419 11.352C35.8419 10.536 35.6819 9.84 35.3619 9.264C35.0419 8.672 34.6099 8.224 34.0659 7.92C33.5219 7.6 32.9379 7.44 32.3139 7.44C31.6899 7.44 31.1139 7.592 30.5859 7.896C30.0579 8.2 29.6259 8.648 29.2899 9.24C28.9699 9.816 28.8099 10.504 28.8099 11.304C28.8099 12.104 28.9699 12.808 29.2899 13.416C29.6259 14.008 30.0579 14.464 30.5859 14.784C31.1299 15.104 31.7059 15.264 32.3139 15.264C32.9379 15.264 33.5219 15.112 34.0659 14.808C34.6099 14.488 35.0419 14.04 35.3619 13.464C35.6819 12.872 35.8419 12.168 35.8419 11.352ZM45.8676 0.24V18H42.5076V0.24H45.8676ZM52.5473 0.24V18H49.1873V0.24H52.5473ZM68.2269 11.064C68.2269 11.544 68.1949 11.976 68.1309 12.36H58.4109C58.4909 13.32 58.8269 14.072 59.4189 14.616C60.0109 15.16 60.7389 15.432 61.6029 15.432C62.8509 15.432 63.7389 14.896 64.2669 13.824H67.8909C67.5069 15.104 66.7709 16.16 65.6829 16.992C64.5949 17.808 63.2589 18.216 61.6749 18.216C60.3949 18.216 59.2429 17.936 58.2189 17.376C57.2109 16.8 56.4189 15.992 55.8429 14.952C55.2829 13.912 55.0029 12.712 55.0029 11.352C55.0029 9.976 55.2829 8.768 55.8429 7.728C56.4029 6.688 57.1869 5.888 58.1949 5.328C59.2029 4.768 60.3629 4.488 61.6749 4.488C62.9389 4.488 64.0669 4.76 65.0589 5.304C66.0669 5.848 66.8429 6.624 67.3869 7.632C67.9469 8.624 68.2269 9.768 68.2269 11.064ZM64.7469 10.104C64.7309 9.24 64.4189 8.552 63.8109 8.04C63.2029 7.512 62.4589 7.248 61.5789 7.248C60.7469 7.248 60.0429 7.504 59.4669 8.016C58.9069 8.512 58.5629 9.208 58.4349 10.104H64.7469ZM74.5914 7.464V13.896C74.5914 14.344 74.6954 14.672 74.9034 14.88C75.1274 15.072 75.4954 15.168 76.0074 15.168H77.5674V18H75.4554C72.6234 18 71.2074 16.624 71.2074 13.872V7.464H69.6234V4.704H71.2074V1.416H74.5914V4.704H77.5674V7.464H74.5914Z" fill="white"/>
</svg>
