<svg width="70" height="70" viewBox="0 0 70 70" fill="none" xmlns="http://www.w3.org/2000/svg">
<path d="M64.3376 64.1761H5.66235C2.53514 64.1761 0 61.8689 0 59.023V14.5593C0 11.7134 2.53514 9.40625 5.66235 9.40625H64.3376C67.4649 9.40625 70 11.7134 70 14.5593V59.023C70 61.8689 67.4649 64.1761 64.3376 64.1761Z" fill="#F8D57E"/>
<path d="M63.0266 62.958H6.96834C3.98055 62.958 1.55838 60.7537 1.55838 58.0347V15.5542C1.55838 12.8352 3.9804 10.6309 6.96834 10.6309H63.0265C66.0143 10.6309 68.4365 12.835 68.4365 15.5542V58.0348C68.4366 60.7539 66.0144 62.958 63.0266 62.958Z" fill="#E1C379"/>
<path d="M66.2037 23.796L52.0903 1.54965C51.1503 0.067757 49.0679 -0.440016 47.4396 0.415706L2.94156 23.796H66.2037Z" fill="#009379"/>
<path fill-rule="evenodd" clip-rule="evenodd" d="M70 24.8179V35.3488V41.6907V59.0245C70 61.8705 67.4649 64.1776 64.3376 64.1776H5.6625C2.53514 64.1776 0 61.8703 0 59.0244V41.6907V35.3488V24.8179C0 22.6883 1.89696 20.9619 4.23711 20.9619H65.7629C68.103 20.9619 70 22.6883 70 24.8179Z" fill="#FF6250"/>
<path d="M54.6648 69.9614L5.52624 64.7677C2.3762 64.4347 0 62.0067 0 59.1207V14.1826C0 15.1484 0.795171 15.9608 1.84904 16.0722L56.1059 21.807C59.256 22.1401 61.6322 24.568 61.6322 27.454V64.3145C61.6322 67.714 58.3753 70.3538 54.6648 69.9614Z" fill="#F8D57E"/>
<path d="M4.40414 21.1901C4.36298 21.1901 4.32121 21.188 4.2793 21.1839L2.03064 20.9588C1.40959 20.8966 0.961451 20.3883 1.02981 19.8232C1.09816 19.2582 1.65717 18.8508 2.27762 18.9124L4.52628 19.1375C5.14733 19.1997 5.59547 19.708 5.52712 20.273C5.46342 20.8001 4.97337 21.1901 4.40414 21.1901Z" fill="#F8D57E"/>
<path d="M50.6089 66.5614C50.5614 66.5614 50.513 66.5585 50.4647 66.5531L46.0943 66.0474C45.4748 65.9757 45.0361 65.4603 45.1149 64.8962C45.1938 64.3324 45.76 63.9355 46.3799 64.0049L50.7502 64.5106C51.3698 64.5823 51.8086 65.0977 51.7296 65.6618C51.6567 66.1816 51.17 66.5614 50.6089 66.5614ZM54.9106 66.0519C54.4863 66.0519 54.0794 65.8335 53.8866 65.4608C53.6203 64.9466 53.8626 64.3332 54.4277 64.091C55.5754 63.5989 56.4384 62.7826 56.7958 61.8513C57.0018 61.3148 57.6472 61.0318 58.2367 61.2189C58.8264 61.4063 59.1376 61.9934 58.9317 62.5301C58.3672 64.0009 57.1103 65.2168 55.3919 65.9534C55.2361 66.0201 55.0722 66.0519 54.9106 66.0519ZM41.8683 65.55C41.8208 65.55 41.7725 65.5471 41.7241 65.5416L37.3537 65.0359C36.7342 64.9643 36.2954 64.4488 36.3744 63.8847C36.4532 63.3209 37.0195 62.9239 37.6393 62.9935L42.0097 63.4992C42.6292 63.5708 43.0681 64.0863 42.989 64.6504C42.9162 65.17 42.4291 65.55 41.8683 65.55ZM33.1277 64.5384C33.0803 64.5384 33.032 64.5355 32.9835 64.53L28.6132 64.0243C27.9936 63.9527 27.5548 63.4373 27.6338 62.8732C27.7127 62.3093 28.279 61.9104 28.8987 61.9819L33.2691 62.4876C33.8887 62.5592 34.3275 63.0747 34.2485 63.6388C34.1756 64.1584 33.6886 64.5384 33.1277 64.5384ZM24.3869 63.5268C24.3394 63.5268 24.2912 63.5239 24.2426 63.5185L19.8721 63.0126C19.2524 62.9408 18.8138 62.4255 18.8928 61.8614C18.9717 61.2975 19.5382 60.9004 20.1577 60.9702L24.5282 61.476C25.1479 61.5478 25.5866 62.0631 25.5076 62.6272C25.435 63.1471 24.948 63.5268 24.3869 63.5268ZM15.6463 62.5152C15.5988 62.5152 15.5506 62.5124 15.5021 62.5069L11.1316 62.001C10.5119 61.9292 10.0732 61.414 10.1522 60.8499C10.2311 60.2859 10.7976 59.8887 11.4172 59.9586L15.7877 60.4644C16.4074 60.5362 16.846 61.0515 16.767 61.6156C16.6943 62.1356 16.2074 62.5152 15.6463 62.5152ZM58.1176 59.2374C57.4928 59.2374 56.9865 58.7767 56.9865 58.208V54.1988C56.9865 53.6301 57.4928 53.1694 58.1176 53.1694C58.7424 53.1694 59.2486 53.6301 59.2486 54.1988V58.208C59.2488 58.7767 58.7425 59.2374 58.1176 59.2374ZM58.1176 51.219C57.4928 51.219 56.9865 50.7582 56.9865 50.1896V46.1803C56.9865 45.6117 57.4928 45.151 58.1176 45.151C58.7424 45.151 59.2486 45.6117 59.2486 46.1803V50.1896C59.2488 50.7581 58.7425 51.219 58.1176 51.219ZM58.1176 43.2004C57.4928 43.2004 56.9865 42.7397 56.9865 42.1711V38.1618C56.9865 37.5932 57.4928 37.1324 58.1176 37.1324C58.7424 37.1324 59.2486 37.5932 59.2486 38.1618V42.1711C59.2488 42.7395 58.7425 43.2004 58.1176 43.2004ZM58.1176 35.1819C57.4928 35.1819 56.9865 34.7211 56.9865 34.1525V30.1432C56.9865 29.5746 57.4928 29.1139 58.1176 29.1139C58.7424 29.1139 59.2486 29.5746 59.2486 30.1432V34.1525C59.2488 34.721 58.7425 35.1819 58.1176 35.1819ZM56.5356 27.5742C56.2564 27.5742 55.9765 27.4805 55.7579 27.292C54.9195 26.569 53.7559 26.1084 52.4812 25.9948L52.4513 25.9919C51.8301 25.9311 51.3808 25.4234 51.4478 24.8582C51.5146 24.2929 52.0723 23.8838 52.6935 23.945L52.7127 23.9469C54.4745 24.104 56.1123 24.7616 57.314 25.7975C57.7675 26.1885 57.7868 26.8401 57.3571 27.2529C57.1345 27.4663 56.8353 27.5742 56.5356 27.5742ZM48.1944 25.5597C48.1532 25.5597 48.1114 25.5576 48.0695 25.5534L43.6905 25.1153C43.0696 25.0531 42.6213 24.5447 42.6896 23.9797C42.758 23.4146 43.317 23.0079 43.9374 23.0689L48.3165 23.507C48.9374 23.5693 49.3857 24.0776 49.3173 24.6426C49.2538 25.1695 48.7636 25.5597 48.1944 25.5597ZM39.4364 24.6834C39.3952 24.6834 39.3535 24.6812 39.3115 24.6771L34.9323 24.2389C34.3114 24.1767 33.8631 23.6684 33.9315 23.1033C33.9997 22.5381 34.5596 22.131 35.1793 22.1925L39.5585 22.6307C40.1794 22.6929 40.6277 23.2012 40.5594 23.7663C40.4957 24.2933 40.0056 24.6834 39.4364 24.6834ZM30.6779 23.8071C30.6368 23.8071 30.595 23.805 30.5531 23.8009L26.174 23.3627C25.5531 23.3005 25.1048 22.7921 25.1732 22.2271C25.2414 21.662 25.8001 21.2549 26.421 21.3163L30.8001 21.7544C31.421 21.8167 31.8693 22.325 31.8009 22.89C31.7374 23.4169 31.2473 23.8071 30.6779 23.8071ZM21.9196 22.9309C21.8785 22.9309 21.8367 22.9287 21.7948 22.9246L17.4157 22.4864C16.7947 22.4242 16.3465 21.9159 16.4149 21.3509C16.4831 20.7859 17.0412 20.3789 17.6627 20.44L22.0418 20.8782C22.6627 20.9404 23.111 21.4487 23.0426 22.0138C22.9792 22.5407 22.489 22.9309 21.9196 22.9309ZM13.1613 22.0545C13.1202 22.0545 13.0784 22.0524 13.0365 22.0483L8.65741 21.6101C8.03651 21.5479 7.58822 21.0395 7.65657 20.4745C7.72493 19.9096 8.28319 19.5027 8.90439 19.5637L13.2835 20.0018C13.9045 20.0641 14.3527 20.5724 14.2843 21.1374C14.2208 21.6643 13.7306 22.0545 13.1613 22.0545Z" fill="#F8D57E"/>
<path d="M6.89864 61.5101C6.85117 61.5101 6.8031 61.5074 6.75457 61.5018L4.51028 61.2421C3.89058 61.1705 3.45175 60.6551 3.53078 60.0911C3.6095 59.5271 4.17587 59.1282 4.79557 59.1997L7.03986 59.4593C7.65956 59.531 8.09839 60.0464 8.01937 60.6104C7.94665 61.1303 7.45961 61.5101 6.89864 61.5101Z" fill="#F8D57E"/>
<path d="M48.4534 7.66878L41.2141 11.2538C40.2711 11.7207 39.0907 11.4037 38.5775 10.5455C38.0645 9.68729 38.4129 8.61309 39.3559 8.14606L46.5953 4.56116C47.5383 4.09426 48.7187 4.41131 49.2319 5.2695C49.7449 6.12754 49.3965 7.20188 48.4534 7.66878Z" fill="white"/>
<path d="M50.3634 51.6673C53.426 51.6673 55.9087 49.4079 55.9087 46.6208C55.9087 43.8336 53.426 41.5742 50.3634 41.5742C47.3008 41.5742 44.8181 43.8336 44.8181 46.6208C44.8181 49.4079 47.3008 51.6673 50.3634 51.6673Z" fill="url(#paint0_linear_404_87)"/>
<path d="M50.3601 50.1013C52.4737 50.1013 54.1871 48.542 54.1871 46.6185C54.1871 44.695 52.4737 43.1357 50.3601 43.1357C48.2465 43.1357 46.5331 44.695 46.5331 46.6185C46.5331 48.542 48.2465 50.1013 50.3601 50.1013Z" fill="url(#paint1_linear_404_87)"/>
<defs>
<linearGradient id="paint0_linear_404_87" x1="50.3622" y1="43.4536" x2="50.3622" y2="50.7513" gradientUnits="userSpaceOnUse">
<stop stop-color="#FF4C54"/>
<stop offset="1" stop-color="#BE3F45"/>
</linearGradient>
<linearGradient id="paint1_linear_404_87" x1="50.3589" y1="48.8055" x2="50.3589" y2="43.7697" gradientUnits="userSpaceOnUse">
<stop stop-color="#FF4C54"/>
<stop offset="1" stop-color="#BE3F45"/>
</linearGradient>
</defs>
</svg>
